<svg xmlns="http://www.w3.org/2000/svg" viewBox="0 0 512 512"><g id="Layer_2" data-name="Layer 2"><g id="Layer_1-2" data-name="Layer 1"><path d="M436.41,0H75.59A75.59,75.59,0,0,0,0,75.59V436.41A75.59,75.59,0,0,0,75.59,512H436.41A75.59,75.59,0,0,0,512,436.41V75.59A75.59,75.59,0,0,0,436.41,0ZM299.16,440.17V364.11c0-19.33-7.35-24.32-13.5-33.69h0c48-7.16,67.09-32.6,74.68-52.7,18.57-49.25-14.94-79.93-13.85-83.28,8.07-24.31-1.73-45-2.1-47.18-10,3.26-8.68-4.14-46.07,18.51-1,.6-1.61.68-1.47.71l-1.67-.17A156.64,156.64,0,0,0,256,160.72a156.2,156.2,0,0,0-38.66,5.44c-2.16.16-1.48.9-3.64-.39l-5.18-3.11c-29.93-18.18-31.46-12.6-40.87-15.39-.36,2.17-10.3,22.54-2.14,47.16a2.93,2.93,0,0,1-.73,2.24c-17.78,21.05-23.18,54.38-13.12,81.05,7.59,20.09,26.7,45.53,74.67,52.69h0c-4.72,7.2-11,12.3-12.68,25.95-6.82,2.41-12.67,3.18-18.12,1.58-5.64-1.67-10-5.43-13.85-11.85-8.59-14.43-23.06-26.06-39.79-24.62l1.9,21.49c7.73-.56,15.15,7.1,19.33,14.16,6.57,11.05,15.41,18.3,26.3,21.51a44.87,44.87,0,0,0,23.41.6v60.93c-80.43-19.43-141-97.85-141-184.17,0-101.16,83-184.17,184.17-184.17s184.17,83,184.17,184.17C440.17,342.32,379.6,420.74,299.16,440.17Z"/></g></g></svg>