<svg xmlns="http://www.w3.org/2000/svg" viewBox="0 0 74.38 74.38"><g id="Layer_2" data-name="Layer 2"><g id="Layer_1-2" data-name="Layer 1"><path d="M74.26,45.88a7.5,7.5,0,0,0-8.69-6.08l-4.92.87L58,25.9,63,25a7.5,7.5,0,0,0-2.61-14.78l-4.92.87L54.57,6.2A7.5,7.5,0,0,0,39.8,8.8l.87,4.93-14.78,2.6L25,11.41A7.5,7.5,0,0,0,10.25,14l.87,4.93-4.92.87A7.5,7.5,0,0,0,7.49,34.69a7.32,7.32,0,0,0,1.31-.11l4.93-.87,2.6,14.77-4.92.87A7.5,7.5,0,0,0,12.7,64.24,7.34,7.34,0,0,0,14,64.12l4.93-.87.86,4.93a7.51,7.51,0,0,0,7.38,6.2,7.34,7.34,0,0,0,1.31-.12,7.5,7.5,0,0,0,6.09-8.69l-.87-4.92L48.48,58,49.35,63a7.5,7.5,0,0,0,7.38,6.2A7.34,7.34,0,0,0,58,69.05a7.5,7.5,0,0,0,6.08-8.69l-.87-4.92,4.93-.87A7.5,7.5,0,0,0,74.26,45.88Zm-43.16,0L28.5,31.11,43.27,28.5l2.61,14.77Z"/></g></g></svg>